_________________________  Visit us at _________________________
  
http://p2pdl.com  ____________________________  http://p2pdl.com


Not Fade Away 2012 BRRip 720p x264 AAC - PRiSTiNE [P2PDL]

Genre: Drama
Plot: Set in suburban New Jersey the 1960s, a group of 
friends form a rock band and try to make it big.
Director: David Chase
Stars: John Magaro, Jack Huston, Will Brill
Rated: Rated R for pervasive language, some drug use and sexual content

Info: 
http://www.imdb.com/title/tt1230215/

General
Complete name                  : Not Fade Away 2012 BRRip 720p x264 AAC - PRiSTiNE.mp4
Format                         : MPEG-4
Format profile                 : Base Media
Codec ID                       : isom
File size                      : 701 MiB
Duration                       : 1h 52mn
Overall bit rate mode          : Variable
Overall bit rate               : 874 Kbps

Video
Format                         : AVC
Format/Info                    : Advanced Video Codec
Format profile                 : High 10@L4.1
Bit rate                       : 791 Kbps
Width                          : 1 280 pixels
Height                         : 720 pixels
Display aspect ratio           : 16:9
Frame rate mode                : Constant
Frame rate                     : 23.976 fps
Bit depth                      : 10 bits
Bits/(Pixel*Frame)             : 0.036
Stream size                    : 635 MiB (90%)
Writing library                : x264 core 130 r2273 b3065e6

Audio
Format                         : AAC
Bit rate mode                  : Variable
Bit rate                       : 79.9 Kbps
Channel(s)                     : 2 channels
Channel positions              : Front: L R
Sampling rate                  : 48.0 KHz / 24.0 KHz
Stream size                    : 64.1 MiB (9%)
Language                       : English

Subtitle                       : Yes (English)
Source                         : 720p.BluRay.x264-GECKOS (Thanks)

Screens:
 
http://www.ultraimg.com/images/jvcgT.jpg 
http://www.ultraimg.com/images/G7M9.jpg 
http://www.ultraimg.com/images/23aVW.jpg 
http://www.ultraimg.com/images/wQshy.jpg 
http://www.ultraimg.com/images/8vhCS.jpg

----------------------------------------------------------------------------------------------------


Encoded using revolutionary 10bit encoding, which enables us to provide you more crispier 
and sharper images at small sizes, just make sure you follow our instructions without a fault.
Recommend to you to use latest version of VLC player. Install K-Lite Codec Pack or shark007 codecs
in case of any kind of problem in playback (For non-VLC Media Player users). Alternatively, install
Core AVC codecs, the fastest decoder that there is coupled with Community Center Codec Pack and play
on Windows Media Player Classic. Check sample to be sure.
Enjoy!

Encoder Notes:Looking For Early Access To Anything You Can Provide DVDScr, R5, DVDR, BluRay, Direct
Audio, Music Releases and Seedboxes. We require dedicated servers, so as to do more 
and fast releases of movies.
If You Got anything to offer please contact us at "prg@hush.com".

Face book Fan Page:   
http://www.fb.me/p2pdl